<?xml version="1.0" standalone="no"?>
<!DOCTYPE svg PUBLIC "-//W3C//DTD SVG 20010904//EN"
 "http://www.w3.org/TR/2001/REC-SVG-20010904/DTD/svg10.dtd">
<svg version="1.0" xmlns="http://www.w3.org/2000/svg"
 width="63.000000pt" height="62.000000pt" viewBox="0 0 63.000000 62.000000"
 preserveAspectRatio="xMidYMid meet">

<g transform="translate(0.000000,62.000000) scale(0.100000,-0.100000)"
fill="#000000" stroke="none">
<path d="M228 606 c-178 -48 -276 -259 -197 -426 53 -112 144 -172 271 -178
65 -4 85 0 130 20 76 35 123 80 159 153 29 59 31 70 27 142 -2 43 -12 96 -21
117 l-17 39 -28 -26 c-16 -15 -35 -27 -45 -27 -14 0 -15 -3 -1 -35 21 -52 18
-114 -11 -171 -86 -173 -340 -142 -385 47 -28 115 51 232 171 254 33 6 75 -1
122 -20 11 -5 17 -3 17 6 0 7 12 26 27 41 32 34 28 39 -51 63 -59 18 -104 18
-168 1z"/>
<path d="M393 414 c-16 -22 -22 -24 -45 -15 -36 14 -94 -4 -114 -34 -9 -14
-16 -41 -16 -62 0 -29 7 -43 31 -65 44 -39 92 -38 133 2 28 28 30 35 25 78 -5
41 -2 50 21 75 22 23 24 29 12 37 -22 14 -26 13 -47 -16z"/>
</g>
</svg>
